<svg width="32" height="32" viewBox="0 0 32 32" fill="none" xmlns="http://www.w3.org/2000/svg">
<rect width="32" height="32" rx="16" fill="black"/>
<path d="M17.8733 8.2C19.7266 8.2 20.6533 9.25333 20.6533 11.36C20.6533 11.84 20.4066 12.08 19.9133 12.08C19.3933 12.08 19.1333 11.8533 19.1333 11.4C19.1333 10.8 19.0533 10.3333 18.8933 10C18.7333 9.66667 18.3999 9.5 17.8933 9.5C17.3199 9.5 16.9199 9.74 16.6933 10.22C16.4799 10.7 16.3733 11.4267 16.3733 12.4C16.3733 13.4267 16.3799 14.26 16.3933 14.9H17.9733C18.1599 14.9 18.3066 14.96 18.4133 15.08C18.5199 15.1867 18.5733 15.3467 18.5733 15.56C18.5733 15.92 18.3733 16.1067 17.9733 16.12L16.4133 16.16C16.4399 18.6667 16.4533 20.72 16.4533 22.32C16.4533 22.56 16.3799 22.7333 16.2333 22.84C16.0999 22.9467 15.9266 23 15.7133 23C15.4733 23 15.2933 22.94 15.1733 22.82C15.0533 22.7 14.9933 22.54 14.9933 22.34C14.9933 21.1133 14.9666 19.4333 14.9133 17.3L14.8933 16.2L13.6933 16.22C13.4533 16.22 13.2799 16.1667 13.1733 16.06C13.0666 15.9533 13.0133 15.7933 13.0133 15.58C13.0133 15.3933 13.0599 15.2467 13.1533 15.14C13.2466 15.0333 13.4199 14.9733 13.6733 14.96L14.8733 14.94C14.8466 13.6333 14.8333 12.78 14.8333 12.38C14.8333 11.1 15.0799 10.0867 15.5733 9.34C16.0799 8.58 16.8466 8.2 17.8733 8.2Z" fill="white"/>
</svg>
